<svg xmlns="http://www.w3.org/2000/svg" xmlns:xlink="http://www.w3.org/1999/xlink" width="500" zoomAndPan="magnify" viewBox="0 0 375 374.999991" height="500" preserveAspectRatio="xMidYMid meet" version="1.0"><defs><g/></defs><rect x="-37.5" width="450" fill="#ffffff" y="-37.499999" height="449.999989" fill-opacity="1"/><rect x="-37.5" width="450" fill="#242424" y="-37.499999" height="449.999989" fill-opacity="1"/><g fill="#ffffff" fill-opacity="1"><g transform="translate(29.548259, 259.038492)"><g><path d="M 5.625 0 L 5.625 -1.875 C 11.007812 -1.875 14.921875 -3.5 17.359375 -6.75 C 19.796875 -10.007812 21.328125 -15.328125 21.953125 -22.703125 C 22.578125 -30.085938 22.890625 -39.910156 22.890625 -52.171875 L 22.890625 -135.46875 C 22.890625 -147.851562 22.578125 -157.703125 21.953125 -165.015625 C 21.328125 -172.335938 19.796875 -177.625 17.359375 -180.875 C 14.921875 -184.132812 11.007812 -185.765625 5.625 -185.765625 L 5.625 -187.640625 L 20.640625 -187.640625 C 30.523438 -187.640625 39.65625 -188.265625 48.03125 -189.515625 C 56.414062 -190.765625 64.738281 -191.390625 73 -191.390625 C 87.507812 -191.390625 100.078125 -188.757812 110.703125 -183.5 C 121.335938 -178.25 130.1875 -171.054688 137.25 -161.921875 C 144.320312 -152.796875 149.578125 -142.382812 153.015625 -130.6875 C 156.460938 -118.988281 158.1875 -106.703125 158.1875 -93.828125 C 158.1875 -80.941406 156.460938 -68.648438 153.015625 -56.953125 C 149.578125 -45.253906 144.320312 -34.835938 137.25 -25.703125 C 130.1875 -16.578125 121.335938 -9.382812 110.703125 -4.125 C 100.078125 1.125 87.507812 3.75 73 3.75 C 64.738281 3.75 56.414062 3.125 48.03125 1.875 C 39.65625 0.625 30.523438 0 20.640625 0 Z M 38.84375 -183.515625 L 38.84375 -4.125 C 44.34375 -2.5 49.84375 -1.21875 55.34375 -0.28125 C 60.851562 0.65625 66.671875 1.125 72.796875 1.125 C 84.429688 1.125 94.566406 -1.375 103.203125 -6.375 C 111.835938 -11.382812 119.03125 -18.296875 124.78125 -27.109375 C 130.53125 -35.929688 134.84375 -46.066406 137.71875 -57.515625 C 140.601562 -68.960938 142.046875 -81.066406 142.046875 -93.828125 C 142.046875 -106.578125 140.601562 -118.675781 137.71875 -130.125 C 134.84375 -141.570312 130.53125 -151.703125 124.78125 -160.515625 C 119.03125 -169.335938 111.835938 -176.25 103.203125 -181.25 C 94.566406 -186.257812 84.429688 -188.765625 72.796875 -188.765625 C 66.671875 -188.765625 60.851562 -188.328125 55.34375 -187.453125 C 49.84375 -186.578125 44.34375 -185.265625 38.84375 -183.515625 Z M 38.84375 -183.515625 "/></g></g></g><g fill="#ffffff" fill-opacity="1"><g transform="translate(164.208718, 259.038492)"><g><path d="M 0 -185.765625 L 0 -187.640625 L 61.546875 -187.640625 L 61.546875 -185.765625 C 54.910156 -185.765625 49.875 -184.890625 46.4375 -183.140625 C 43 -181.390625 40.78125 -178.945312 39.78125 -175.8125 C 38.78125 -172.6875 38.65625 -169.0625 39.40625 -164.9375 C 40.15625 -160.8125 41.40625 -156.367188 43.15625 -151.609375 L 93.828125 -18.015625 C 101.578125 -40.148438 109.640625 -62.289062 118.015625 -84.4375 C 126.398438 -106.582031 134.222656 -128.785156 141.484375 -151.046875 C 142.734375 -154.804688 143.546875 -158.71875 143.921875 -162.78125 C 144.296875 -166.84375 143.859375 -170.59375 142.609375 -174.03125 C 141.359375 -177.476562 138.976562 -180.296875 135.46875 -182.484375 C 131.96875 -184.671875 126.90625 -185.765625 120.28125 -185.765625 L 120.28125 -187.640625 L 173.375 -187.640625 L 173.375 -185.765625 C 167.625 -185.765625 162.898438 -183.195312 159.203125 -178.0625 C 155.515625 -172.9375 151.671875 -165.179688 147.671875 -154.796875 L 87.625 3.75 L 85.75 3.75 L 25.703125 -154.796875 C 21.578125 -165.179688 17.695312 -172.9375 14.0625 -178.0625 C 10.4375 -183.195312 5.75 -185.765625 0 -185.765625 Z M 0 -185.765625 "/></g></g></g><g fill="#ffffff" fill-opacity="1"><g transform="translate(73.330079, 294.015484)"><g><path d="M 3.78125 -14.078125 C 3.769531 -13.296875 3.753906 -12.539062 3.734375 -11.8125 C 3.734375 -11.5 3.726562 -11.175781 3.71875 -10.84375 C 3.71875 -10.519531 3.710938 -10.195312 3.703125 -9.875 C 3.703125 -9.5625 3.703125 -9.257812 3.703125 -8.96875 C 3.703125 -8.6875 3.703125 -8.429688 3.703125 -8.203125 C 3.703125 -7.742188 3.703125 -7.179688 3.703125 -6.515625 C 3.710938 -5.859375 3.722656 -5.179688 3.734375 -4.484375 C 3.742188 -3.785156 3.757812 -3.113281 3.78125 -2.46875 C 3.800781 -1.832031 3.828125 -1.300781 3.859375 -0.875 C 3.953125 -0.863281 4.078125 -0.847656 4.234375 -0.828125 C 4.398438 -0.804688 4.570312 -0.789062 4.75 -0.78125 C 4.9375 -0.769531 5.117188 -0.757812 5.296875 -0.75 C 5.472656 -0.75 5.617188 -0.75 5.734375 -0.75 C 6.222656 -0.75 6.722656 -0.78125 7.234375 -0.84375 C 7.742188 -0.914062 8.238281 -1.039062 8.71875 -1.21875 C 9.195312 -1.40625 9.644531 -1.65625 10.0625 -1.96875 C 10.488281 -2.28125 10.859375 -2.6875 11.171875 -3.1875 C 11.484375 -3.695312 11.726562 -4.300781 11.90625 -5 C 12.09375 -5.707031 12.1875 -6.546875 12.1875 -7.515625 C 12.1875 -8.578125 12.054688 -9.523438 11.796875 -10.359375 C 11.546875 -11.191406 11.171875 -11.890625 10.671875 -12.453125 C 10.171875 -13.023438 9.550781 -13.457031 8.8125 -13.75 C 8.082031 -14.050781 7.238281 -14.203125 6.28125 -14.203125 C 6.09375 -14.203125 5.878906 -14.195312 5.640625 -14.1875 C 5.410156 -14.175781 5.175781 -14.164062 4.9375 -14.15625 C 4.707031 -14.144531 4.488281 -14.128906 4.28125 -14.109375 C 4.082031 -14.097656 3.914062 -14.085938 3.78125 -14.078125 Z M 1.5 -15.015625 C 1.65625 -15.015625 1.800781 -15.007812 1.9375 -15 C 2.0625 -14.988281 2.1875 -14.984375 2.3125 -14.984375 C 2.4375 -14.984375 2.535156 -14.984375 2.609375 -14.984375 C 2.742188 -14.984375 2.960938 -14.988281 3.265625 -15 C 3.578125 -15.007812 3.929688 -15.019531 4.328125 -15.03125 C 4.734375 -15.050781 5.148438 -15.066406 5.578125 -15.078125 C 6.003906 -15.097656 6.40625 -15.109375 6.78125 -15.109375 C 7.789062 -15.109375 8.75 -14.976562 9.65625 -14.71875 C 10.570312 -14.46875 11.375 -14.054688 12.0625 -13.484375 C 12.75 -12.921875 13.296875 -12.175781 13.703125 -11.25 C 14.109375 -10.320312 14.3125 -9.179688 14.3125 -7.828125 C 14.3125 -6.859375 14.203125 -5.988281 13.984375 -5.21875 C 13.773438 -4.445312 13.476562 -3.765625 13.09375 -3.171875 C 12.707031 -2.578125 12.25 -2.070312 11.71875 -1.65625 C 11.1875 -1.238281 10.597656 -0.890625 9.953125 -0.609375 C 9.316406 -0.335938 8.628906 -0.140625 7.890625 -0.015625 C 7.160156 0.109375 6.40625 0.171875 5.625 0.171875 C 5.351562 0.171875 5.019531 0.160156 4.625 0.140625 C 4.226562 0.117188 3.832031 0.0976562 3.4375 0.078125 C 3.039062 0.0546875 2.664062 0.0351562 2.3125 0.015625 C 1.957031 0.00390625 1.6875 0 1.5 0 L 1.5 -0.046875 C 1.539062 -0.191406 1.578125 -0.367188 1.609375 -0.578125 C 1.648438 -0.796875 1.679688 -1.066406 1.703125 -1.390625 C 1.734375 -1.710938 1.753906 -2.09375 1.765625 -2.53125 C 1.785156 -2.976562 1.796875 -3.492188 1.796875 -4.078125 L 1.796875 -10.890625 C 1.796875 -11.472656 1.785156 -11.988281 1.765625 -12.4375 C 1.753906 -12.894531 1.734375 -13.285156 1.703125 -13.609375 C 1.679688 -13.929688 1.648438 -14.203125 1.609375 -14.421875 C 1.578125 -14.648438 1.539062 -14.835938 1.5 -14.984375 Z M 1.5 -15.015625 "/></g></g></g><g fill="#ffffff" fill-opacity="1"><g transform="translate(94.715288, 294.015484)"><g><path d="M 11.859375 0 L 11.859375 -0.046875 C 11.867188 -0.078125 11.875 -0.125 11.875 -0.1875 C 11.882812 -0.257812 11.890625 -0.328125 11.890625 -0.390625 C 11.890625 -0.597656 11.859375 -0.832031 11.796875 -1.09375 C 11.742188 -1.363281 11.632812 -1.691406 11.46875 -2.078125 L 10.203125 -4.921875 C 9.816406 -4.929688 9.296875 -4.9375 8.640625 -4.9375 C 7.992188 -4.9375 7.296875 -4.9375 6.546875 -4.9375 C 5.992188 -4.9375 5.460938 -4.9375 4.953125 -4.9375 C 4.441406 -4.9375 3.984375 -4.929688 3.578125 -4.921875 L 2.375 -2.15625 C 2.269531 -1.90625 2.15625 -1.625 2.03125 -1.3125 C 1.914062 -1.007812 1.859375 -0.703125 1.859375 -0.390625 C 1.859375 -0.296875 1.863281 -0.21875 1.875 -0.15625 C 1.894531 -0.101562 1.910156 -0.0664062 1.921875 -0.046875 L 1.921875 0 L -0.203125 0 L -0.203125 -0.046875 C -0.078125 -0.171875 0.078125 -0.398438 0.265625 -0.734375 C 0.453125 -1.078125 0.65625 -1.503906 0.875 -2.015625 L 6.859375 -15.296875 L 7.703125 -15.296875 L 13.375 -2.53125 C 13.5 -2.226562 13.632812 -1.9375 13.78125 -1.65625 C 13.925781 -1.375 14.0625 -1.117188 14.1875 -0.890625 C 14.3125 -0.671875 14.421875 -0.484375 14.515625 -0.328125 C 14.617188 -0.179688 14.6875 -0.0859375 14.71875 -0.046875 L 14.71875 0 Z M 5.09375 -5.84375 C 5.488281 -5.84375 5.898438 -5.84375 6.328125 -5.84375 C 6.753906 -5.84375 7.171875 -5.84375 7.578125 -5.84375 C 7.984375 -5.851562 8.375 -5.859375 8.75 -5.859375 C 9.125 -5.867188 9.46875 -5.875 9.78125 -5.875 L 6.84375 -12.515625 L 3.953125 -5.84375 Z M 5.09375 -5.84375 "/></g></g></g><g fill="#ffffff" fill-opacity="1"><g transform="translate(115.338263, 294.015484)"><g><path d="M 3.703125 -4.078125 C 3.703125 -3.492188 3.707031 -2.976562 3.71875 -2.53125 C 3.738281 -2.09375 3.757812 -1.710938 3.78125 -1.390625 C 3.8125 -1.066406 3.84375 -0.796875 3.875 -0.578125 C 3.914062 -0.367188 3.957031 -0.191406 4 -0.046875 L 4 0 L 1.5 0 L 1.5 -0.046875 C 1.539062 -0.191406 1.578125 -0.367188 1.609375 -0.578125 C 1.648438 -0.796875 1.679688 -1.066406 1.703125 -1.390625 C 1.734375 -1.710938 1.753906 -2.09375 1.765625 -2.53125 C 1.785156 -2.96875 1.796875 -3.484375 1.796875 -4.078125 L 1.796875 -10.890625 C 1.796875 -11.472656 1.785156 -11.984375 1.765625 -12.421875 C 1.753906 -12.867188 1.734375 -13.253906 1.703125 -13.578125 C 1.679688 -13.898438 1.648438 -14.171875 1.609375 -14.390625 C 1.578125 -14.609375 1.539062 -14.789062 1.5 -14.9375 L 1.5 -14.984375 L 1.9375 -14.9375 C 2.0625 -14.925781 2.207031 -14.914062 2.375 -14.90625 C 2.539062 -14.90625 2.707031 -14.90625 2.875 -14.90625 C 3.15625 -14.90625 3.523438 -14.9375 3.984375 -15 C 4.441406 -15.070312 5.03125 -15.109375 5.75 -15.109375 C 6.414062 -15.109375 7.03125 -15.015625 7.59375 -14.828125 C 8.164062 -14.648438 8.660156 -14.382812 9.078125 -14.03125 C 9.503906 -13.6875 9.832031 -13.257812 10.0625 -12.75 C 10.289062 -12.25 10.40625 -11.679688 10.40625 -11.046875 C 10.40625 -10.535156 10.34375 -10.066406 10.21875 -9.640625 C 10.09375 -9.210938 9.910156 -8.820312 9.671875 -8.46875 C 9.441406 -8.125 9.160156 -7.816406 8.828125 -7.546875 C 8.503906 -7.285156 8.140625 -7.066406 7.734375 -6.890625 L 11.40625 -1.734375 C 11.582031 -1.472656 11.75 -1.25 11.90625 -1.0625 C 12.0625 -0.875 12.210938 -0.710938 12.359375 -0.578125 C 12.503906 -0.441406 12.640625 -0.328125 12.765625 -0.234375 C 12.898438 -0.148438 13.039062 -0.0859375 13.1875 -0.046875 L 13.1875 0 L 10.15625 0 C 10.132812 -0.132812 10.066406 -0.3125 9.953125 -0.53125 C 9.835938 -0.75 9.707031 -0.96875 9.5625 -1.1875 L 5.859375 -6.390625 C 5.703125 -6.378906 5.539062 -6.367188 5.375 -6.359375 C 5.21875 -6.347656 5.054688 -6.34375 4.890625 -6.34375 C 4.691406 -6.34375 4.492188 -6.347656 4.296875 -6.359375 C 4.097656 -6.367188 3.898438 -6.394531 3.703125 -6.4375 Z M 3.703125 -7.25 C 3.890625 -7.207031 4.078125 -7.175781 4.265625 -7.15625 C 4.460938 -7.144531 4.648438 -7.140625 4.828125 -7.140625 C 5.359375 -7.140625 5.835938 -7.21875 6.265625 -7.375 C 6.703125 -7.53125 7.070312 -7.765625 7.375 -8.078125 C 7.675781 -8.398438 7.910156 -8.800781 8.078125 -9.28125 C 8.242188 -9.757812 8.328125 -10.316406 8.328125 -10.953125 C 8.328125 -11.472656 8.265625 -11.945312 8.140625 -12.375 C 8.023438 -12.800781 7.847656 -13.160156 7.609375 -13.453125 C 7.378906 -13.753906 7.085938 -13.984375 6.734375 -14.140625 C 6.378906 -14.304688 5.96875 -14.390625 5.5 -14.390625 C 5.007812 -14.390625 4.625 -14.363281 4.34375 -14.3125 C 4.0625 -14.269531 3.847656 -14.21875 3.703125 -14.15625 Z M 3.703125 -7.25 "/></g></g></g><g fill="#ffffff" fill-opacity="1"><g transform="translate(134.092166, 294.015484)"><g><path d="M 7.734375 -12.59375 L 7.515625 -12.59375 C 7.453125 -12.757812 7.359375 -12.941406 7.234375 -13.140625 C 7.117188 -13.335938 6.960938 -13.523438 6.765625 -13.703125 C 6.566406 -13.878906 6.328125 -14.023438 6.046875 -14.140625 C 5.765625 -14.265625 5.429688 -14.328125 5.046875 -14.328125 C 4.703125 -14.328125 4.394531 -14.273438 4.125 -14.171875 C 3.863281 -14.066406 3.644531 -13.921875 3.46875 -13.734375 C 3.289062 -13.546875 3.15625 -13.320312 3.0625 -13.0625 C 2.976562 -12.8125 2.9375 -12.523438 2.9375 -12.203125 C 2.9375 -11.703125 3.078125 -11.222656 3.359375 -10.765625 C 3.640625 -10.316406 3.992188 -9.867188 4.421875 -9.421875 C 4.847656 -8.972656 5.304688 -8.523438 5.796875 -8.078125 C 6.285156 -7.640625 6.742188 -7.175781 7.171875 -6.6875 C 7.597656 -6.207031 7.953125 -5.703125 8.234375 -5.171875 C 8.515625 -4.648438 8.65625 -4.085938 8.65625 -3.484375 C 8.65625 -3.035156 8.578125 -2.582031 8.421875 -2.125 C 8.265625 -1.664062 8.019531 -1.253906 7.6875 -0.890625 C 7.363281 -0.535156 6.941406 -0.242188 6.421875 -0.015625 C 5.910156 0.210938 5.300781 0.328125 4.59375 0.328125 C 4.195312 0.328125 3.816406 0.289062 3.453125 0.21875 C 3.097656 0.144531 2.769531 0.0546875 2.46875 -0.046875 C 2.164062 -0.160156 1.894531 -0.28125 1.65625 -0.40625 C 1.414062 -0.53125 1.21875 -0.644531 1.0625 -0.75 L 1.3125 -3.0625 L 1.5625 -3.0625 C 1.644531 -2.726562 1.769531 -2.414062 1.9375 -2.125 C 2.113281 -1.832031 2.328125 -1.570312 2.578125 -1.34375 C 2.835938 -1.113281 3.128906 -0.929688 3.453125 -0.796875 C 3.785156 -0.660156 4.144531 -0.59375 4.53125 -0.59375 C 4.882812 -0.59375 5.203125 -0.644531 5.484375 -0.75 C 5.765625 -0.863281 6.003906 -1.015625 6.203125 -1.203125 C 6.410156 -1.398438 6.566406 -1.628906 6.671875 -1.890625 C 6.785156 -2.148438 6.84375 -2.4375 6.84375 -2.75 C 6.84375 -3.195312 6.757812 -3.601562 6.59375 -3.96875 C 6.4375 -4.34375 6.226562 -4.695312 5.96875 -5.03125 C 5.707031 -5.363281 5.410156 -5.6875 5.078125 -6 C 4.742188 -6.3125 4.40625 -6.625 4.0625 -6.9375 C 3.71875 -7.257812 3.378906 -7.585938 3.046875 -7.921875 C 2.710938 -8.253906 2.414062 -8.609375 2.15625 -8.984375 C 1.894531 -9.367188 1.679688 -9.78125 1.515625 -10.21875 C 1.359375 -10.65625 1.28125 -11.132812 1.28125 -11.65625 C 1.28125 -12.207031 1.382812 -12.703125 1.59375 -13.140625 C 1.8125 -13.585938 2.097656 -13.96875 2.453125 -14.28125 C 2.804688 -14.59375 3.203125 -14.832031 3.640625 -15 C 4.085938 -15.164062 4.550781 -15.25 5.03125 -15.25 C 5.375 -15.25 5.691406 -15.21875 5.984375 -15.15625 C 6.273438 -15.101562 6.535156 -15.039062 6.765625 -14.96875 C 7.003906 -14.894531 7.207031 -14.816406 7.375 -14.734375 C 7.550781 -14.660156 7.695312 -14.597656 7.8125 -14.546875 Z M 7.734375 -12.59375 "/></g></g></g><g fill="#ffffff" fill-opacity="1"><g transform="translate(149.943278, 294.015484)"><g><path d="M 11.859375 -7.171875 C 11.578125 -7.171875 11.226562 -7.171875 10.8125 -7.171875 C 10.394531 -7.179688 9.9375 -7.1875 9.4375 -7.1875 C 8.945312 -7.195312 8.4375 -7.203125 7.90625 -7.203125 C 7.375 -7.210938 6.851562 -7.21875 6.34375 -7.21875 C 5.84375 -7.226562 5.359375 -7.226562 4.890625 -7.21875 C 4.429688 -7.207031 4.035156 -7.195312 3.703125 -7.1875 L 3.703125 -4.078125 C 3.703125 -3.492188 3.707031 -2.976562 3.71875 -2.53125 C 3.738281 -2.09375 3.757812 -1.710938 3.78125 -1.390625 C 3.8125 -1.066406 3.84375 -0.796875 3.875 -0.578125 C 3.914062 -0.367188 3.957031 -0.191406 4 -0.046875 L 4 0 L 1.5 0 L 1.5 -0.046875 C 1.539062 -0.191406 1.578125 -0.367188 1.609375 -0.578125 C 1.648438 -0.796875 1.679688 -1.066406 1.703125 -1.390625 C 1.734375 -1.710938 1.753906 -2.09375 1.765625 -2.53125 C 1.785156 -2.976562 1.796875 -3.492188 1.796875 -4.078125 L 1.796875 -10.890625 C 1.796875 -11.472656 1.785156 -11.984375 1.765625 -12.421875 C 1.753906 -12.867188 1.734375 -13.253906 1.703125 -13.578125 C 1.679688 -13.898438 1.648438 -14.171875 1.609375 -14.390625 C 1.578125 -14.609375 1.539062 -14.789062 1.5 -14.9375 L 1.5 -14.984375 L 4 -14.984375 L 4 -14.9375 C 3.957031 -14.789062 3.914062 -14.609375 3.875 -14.390625 C 3.84375 -14.171875 3.8125 -13.898438 3.78125 -13.578125 C 3.757812 -13.253906 3.738281 -12.867188 3.71875 -12.421875 C 3.707031 -11.984375 3.703125 -11.472656 3.703125 -10.890625 L 3.703125 -8.203125 C 4.054688 -8.191406 4.460938 -8.179688 4.921875 -8.171875 C 5.390625 -8.171875 5.875 -8.171875 6.375 -8.171875 C 6.875 -8.179688 7.378906 -8.1875 7.890625 -8.1875 C 8.410156 -8.195312 8.910156 -8.207031 9.390625 -8.21875 C 9.878906 -8.226562 10.332031 -8.238281 10.75 -8.25 C 11.175781 -8.269531 11.546875 -8.285156 11.859375 -8.296875 L 11.859375 -10.890625 C 11.859375 -11.472656 11.847656 -11.984375 11.828125 -12.421875 C 11.804688 -12.867188 11.785156 -13.253906 11.765625 -13.578125 C 11.742188 -13.898438 11.710938 -14.171875 11.671875 -14.390625 C 11.628906 -14.609375 11.585938 -14.789062 11.546875 -14.9375 L 11.546875 -14.984375 L 14.0625 -14.984375 L 14.0625 -14.9375 C 14.019531 -14.789062 13.976562 -14.609375 13.9375 -14.390625 C 13.894531 -14.171875 13.859375 -13.898438 13.828125 -13.578125 C 13.804688 -13.253906 13.785156 -12.867188 13.765625 -12.421875 C 13.753906 -11.984375 13.75 -11.472656 13.75 -10.890625 L 13.75 -4.078125 C 13.75 -3.492188 13.753906 -2.976562 13.765625 -2.53125 C 13.785156 -2.09375 13.804688 -1.710938 13.828125 -1.390625 C 13.859375 -1.066406 13.894531 -0.796875 13.9375 -0.578125 C 13.976562 -0.367188 14.019531 -0.191406 14.0625 -0.046875 L 14.0625 0 L 11.546875 0 L 11.546875 -0.046875 C 11.585938 -0.191406 11.628906 -0.367188 11.671875 -0.578125 C 11.710938 -0.796875 11.742188 -1.066406 11.765625 -1.390625 C 11.785156 -1.710938 11.804688 -2.09375 11.828125 -2.53125 C 11.847656 -2.976562 11.859375 -3.492188 11.859375 -4.078125 Z M 11.859375 -7.171875 "/></g></g></g><g fill="#ffffff" fill-opacity="1"><g transform="translate(171.610426, 294.015484)"><g><path d="M 11.859375 0 L 11.859375 -0.046875 C 11.867188 -0.078125 11.875 -0.125 11.875 -0.1875 C 11.882812 -0.257812 11.890625 -0.328125 11.890625 -0.390625 C 11.890625 -0.597656 11.859375 -0.832031 11.796875 -1.09375 C 11.742188 -1.363281 11.632812 -1.691406 11.46875 -2.078125 L 10.203125 -4.921875 C 9.816406 -4.929688 9.296875 -4.9375 8.640625 -4.9375 C 7.992188 -4.9375 7.296875 -4.9375 6.546875 -4.9375 C 5.992188 -4.9375 5.460938 -4.9375 4.953125 -4.9375 C 4.441406 -4.9375 3.984375 -4.929688 3.578125 -4.921875 L 2.375 -2.15625 C 2.269531 -1.90625 2.15625 -1.625 2.03125 -1.3125 C 1.914062 -1.007812 1.859375 -0.703125 1.859375 -0.390625 C 1.859375 -0.296875 1.863281 -0.21875 1.875 -0.15625 C 1.894531 -0.101562 1.910156 -0.0664062 1.921875 -0.046875 L 1.921875 0 L -0.203125 0 L -0.203125 -0.046875 C -0.078125 -0.171875 0.078125 -0.398438 0.265625 -0.734375 C 0.453125 -1.078125 0.65625 -1.503906 0.875 -2.015625 L 6.859375 -15.296875 L 7.703125 -15.296875 L 13.375 -2.53125 C 13.5 -2.226562 13.632812 -1.9375 13.78125 -1.65625 C 13.925781 -1.375 14.0625 -1.117188 14.1875 -0.890625 C 14.3125 -0.671875 14.421875 -0.484375 14.515625 -0.328125 C 14.617188 -0.179688 14.6875 -0.0859375 14.71875 -0.046875 L 14.71875 0 Z M 5.09375 -5.84375 C 5.488281 -5.84375 5.898438 -5.84375 6.328125 -5.84375 C 6.753906 -5.84375 7.171875 -5.84375 7.578125 -5.84375 C 7.984375 -5.851562 8.375 -5.859375 8.75 -5.859375 C 9.125 -5.867188 9.46875 -5.875 9.78125 -5.875 L 6.84375 -12.515625 L 3.953125 -5.84375 Z M 5.09375 -5.84375 "/></g></g></g><g fill="#ffffff" fill-opacity="1"><g transform="translate(192.233405, 294.015484)"><g><path d="M 2.078125 -14.984375 L 12.84375 -3.53125 L 12.84375 -10.890625 C 12.84375 -11.472656 12.832031 -11.984375 12.8125 -12.421875 C 12.800781 -12.867188 12.78125 -13.253906 12.75 -13.578125 C 12.726562 -13.898438 12.695312 -14.171875 12.65625 -14.390625 C 12.613281 -14.609375 12.570312 -14.789062 12.53125 -14.9375 L 12.53125 -14.984375 L 14.390625 -14.984375 L 14.390625 -14.9375 C 14.347656 -14.789062 14.304688 -14.609375 14.265625 -14.390625 C 14.234375 -14.171875 14.203125 -13.898438 14.171875 -13.578125 C 14.148438 -13.253906 14.128906 -12.867188 14.109375 -12.421875 C 14.097656 -11.984375 14.09375 -11.472656 14.09375 -10.890625 L 14.09375 0.203125 L 13.734375 0.203125 L 2.984375 -11.234375 L 2.984375 -4.078125 C 2.984375 -3.492188 2.988281 -2.976562 3 -2.53125 C 3.007812 -2.09375 3.03125 -1.710938 3.0625 -1.390625 C 3.09375 -1.066406 3.125 -0.796875 3.15625 -0.578125 C 3.1875 -0.367188 3.222656 -0.191406 3.265625 -0.046875 L 3.265625 0 L 1.40625 0 L 1.40625 -0.046875 C 1.445312 -0.191406 1.488281 -0.367188 1.53125 -0.578125 C 1.570312 -0.796875 1.601562 -1.066406 1.625 -1.390625 C 1.65625 -1.710938 1.675781 -2.09375 1.6875 -2.53125 C 1.707031 -2.976562 1.71875 -3.492188 1.71875 -4.078125 L 1.71875 -10.890625 C 1.71875 -11.472656 1.707031 -11.984375 1.6875 -12.421875 C 1.675781 -12.867188 1.65625 -13.253906 1.625 -13.578125 C 1.601562 -13.898438 1.570312 -14.171875 1.53125 -14.390625 C 1.488281 -14.609375 1.445312 -14.789062 1.40625 -14.9375 L 1.40625 -14.984375 Z M 2.078125 -14.984375 "/></g></g></g><g fill="#ffffff" fill-opacity="1"><g transform="translate(214.151154, 294.015484)"><g/></g></g><g fill="#ffffff" fill-opacity="1"><g transform="translate(226.681812, 294.015484)"><g><path d="M 2.4375 -14.984375 L 2.4375 -14.9375 C 2.414062 -14.90625 2.398438 -14.851562 2.390625 -14.78125 C 2.390625 -14.707031 2.390625 -14.644531 2.390625 -14.59375 C 2.390625 -14.375 2.414062 -14.132812 2.46875 -13.875 C 2.53125 -13.613281 2.644531 -13.289062 2.8125 -12.90625 L 7.453125 -2.46875 L 11.921875 -12.8125 C 12.023438 -13.070312 12.132812 -13.351562 12.25 -13.65625 C 12.363281 -13.96875 12.421875 -14.28125 12.421875 -14.59375 C 12.421875 -14.675781 12.414062 -14.742188 12.40625 -14.796875 C 12.394531 -14.859375 12.378906 -14.90625 12.359375 -14.9375 L 12.359375 -14.984375 L 14.5 -14.984375 L 14.5 -14.9375 C 14.375 -14.800781 14.21875 -14.5625 14.03125 -14.21875 C 13.84375 -13.882812 13.632812 -13.46875 13.40625 -12.96875 L 7.421875 0.328125 L 6.59375 0.328125 L 0.921875 -12.453125 C 0.785156 -12.753906 0.644531 -13.039062 0.5 -13.3125 C 0.363281 -13.59375 0.234375 -13.84375 0.109375 -14.0625 C -0.015625 -14.289062 -0.125 -14.484375 -0.21875 -14.640625 C -0.320312 -14.796875 -0.390625 -14.894531 -0.421875 -14.9375 L -0.421875 -14.984375 Z M 2.4375 -14.984375 "/></g></g></g><g fill="#ffffff" fill-opacity="1"><g transform="translate(246.876673, 294.015484)"><g><path d="M 1.5 -14.984375 C 2.363281 -14.984375 3.222656 -14.984375 4.078125 -14.984375 C 4.941406 -14.992188 5.734375 -15.003906 6.453125 -15.015625 C 7.171875 -15.023438 7.785156 -15.039062 8.296875 -15.0625 C 8.804688 -15.082031 9.148438 -15.109375 9.328125 -15.140625 L 8.8125 -13.75 C 8.582031 -13.8125 8.316406 -13.867188 8.015625 -13.921875 C 7.742188 -13.960938 7.414062 -14 7.03125 -14.03125 C 6.65625 -14.070312 6.222656 -14.09375 5.734375 -14.09375 C 5.566406 -14.09375 5.363281 -14.085938 5.125 -14.078125 C 4.894531 -14.066406 4.671875 -14.054688 4.453125 -14.046875 C 4.203125 -14.035156 3.953125 -14.019531 3.703125 -14 L 3.703125 -8.296875 C 4.410156 -8.304688 5.050781 -8.328125 5.625 -8.359375 C 6.207031 -8.398438 6.703125 -8.4375 7.109375 -8.46875 C 7.585938 -8.507812 8.003906 -8.554688 8.359375 -8.609375 L 8.046875 -7.109375 C 7.566406 -7.171875 7.070312 -7.226562 6.5625 -7.28125 C 6.132812 -7.332031 5.664062 -7.375 5.15625 -7.40625 C 4.644531 -7.445312 4.160156 -7.46875 3.703125 -7.46875 L 3.703125 -0.921875 C 4.523438 -0.921875 5.28125 -0.953125 5.96875 -1.015625 C 6.65625 -1.085938 7.253906 -1.171875 7.765625 -1.265625 C 8.367188 -1.359375 8.914062 -1.472656 9.40625 -1.609375 L 9.109375 0.078125 C 9.023438 0.078125 8.898438 0.0703125 8.734375 0.0625 C 8.566406 0.0507812 8.378906 0.0390625 8.171875 0.03125 C 7.960938 0.03125 7.742188 0.0234375 7.515625 0.015625 C 7.296875 0.015625 7.082031 0.015625 6.875 0.015625 C 6.675781 0.015625 6.5 0.0078125 6.34375 0 C 6.1875 0 6.070312 0 6 0 L 1.5 0 L 1.5 -0.046875 C 1.539062 -0.191406 1.578125 -0.367188 1.609375 -0.578125 C 1.648438 -0.796875 1.679688 -1.066406 1.703125 -1.390625 C 1.734375 -1.710938 1.753906 -2.09375 1.765625 -2.53125 C 1.785156 -2.976562 1.796875 -3.492188 1.796875 -4.078125 L 1.796875 -10.890625 C 1.796875 -11.472656 1.785156 -11.984375 1.765625 -12.421875 C 1.753906 -12.867188 1.734375 -13.253906 1.703125 -13.578125 C 1.679688 -13.898438 1.648438 -14.171875 1.609375 -14.390625 C 1.578125 -14.609375 1.539062 -14.789062 1.5 -14.9375 Z M 1.5 -14.984375 "/></g></g></g><g fill="#ffffff" fill-opacity="1"><g transform="translate(263.479592, 294.015484)"><g><path d="M 3.703125 -4.078125 C 3.703125 -3.492188 3.707031 -2.976562 3.71875 -2.53125 C 3.738281 -2.09375 3.757812 -1.710938 3.78125 -1.390625 C 3.8125 -1.066406 3.84375 -0.796875 3.875 -0.578125 C 3.914062 -0.367188 3.957031 -0.191406 4 -0.046875 L 4 0 L 1.5 0 L 1.5 -0.046875 C 1.539062 -0.191406 1.578125 -0.367188 1.609375 -0.578125 C 1.648438 -0.796875 1.679688 -1.066406 1.703125 -1.390625 C 1.734375 -1.710938 1.753906 -2.09375 1.765625 -2.53125 C 1.785156 -2.96875 1.796875 -3.484375 1.796875 -4.078125 L 1.796875 -10.890625 C 1.796875 -11.472656 1.785156 -11.984375 1.765625 -12.421875 C 1.753906 -12.867188 1.734375 -13.253906 1.703125 -13.578125 C 1.679688 -13.898438 1.648438 -14.171875 1.609375 -14.390625 C 1.578125 -14.609375 1.539062 -14.789062 1.5 -14.9375 L 1.5 -14.984375 L 1.9375 -14.9375 C 2.0625 -14.925781 2.207031 -14.914062 2.375 -14.90625 C 2.539062 -14.90625 2.707031 -14.90625 2.875 -14.90625 C 3.15625 -14.90625 3.523438 -14.9375 3.984375 -15 C 4.441406 -15.070312 5.03125 -15.109375 5.75 -15.109375 C 6.414062 -15.109375 7.03125 -15.015625 7.59375 -14.828125 C 8.164062 -14.648438 8.660156 -14.382812 9.078125 -14.03125 C 9.503906 -13.6875 9.832031 -13.257812 10.0625 -12.75 C 10.289062 -12.25 10.40625 -11.679688 10.40625 -11.046875 C 10.40625 -10.535156 10.34375 -10.066406 10.21875 -9.640625 C 10.09375 -9.210938 9.910156 -8.820312 9.671875 -8.46875 C 9.441406 -8.125 9.160156 -7.816406 8.828125 -7.546875 C 8.503906 -7.285156 8.140625 -7.066406 7.734375 -6.890625 L 11.40625 -1.734375 C 11.582031 -1.472656 11.75 -1.25 11.90625 -1.0625 C 12.0625 -0.875 12.210938 -0.710938 12.359375 -0.578125 C 12.503906 -0.441406 12.640625 -0.328125 12.765625 -0.234375 C 12.898438 -0.148438 13.039062 -0.0859375 13.1875 -0.046875 L 13.1875 0 L 10.15625 0 C 10.132812 -0.132812 10.066406 -0.3125 9.953125 -0.53125 C 9.835938 -0.75 9.707031 -0.96875 9.5625 -1.1875 L 5.859375 -6.390625 C 5.703125 -6.378906 5.539062 -6.367188 5.375 -6.359375 C 5.21875 -6.347656 5.054688 -6.34375 4.890625 -6.34375 C 4.691406 -6.34375 4.492188 -6.347656 4.296875 -6.359375 C 4.097656 -6.367188 3.898438 -6.394531 3.703125 -6.4375 Z M 3.703125 -7.25 C 3.890625 -7.207031 4.078125 -7.175781 4.265625 -7.15625 C 4.460938 -7.144531 4.648438 -7.140625 4.828125 -7.140625 C 5.359375 -7.140625 5.835938 -7.21875 6.265625 -7.375 C 6.703125 -7.53125 7.070312 -7.765625 7.375 -8.078125 C 7.675781 -8.398438 7.910156 -8.800781 8.078125 -9.28125 C 8.242188 -9.757812 8.328125 -10.316406 8.328125 -10.953125 C 8.328125 -11.472656 8.265625 -11.945312 8.140625 -12.375 C 8.023438 -12.800781 7.847656 -13.160156 7.609375 -13.453125 C 7.378906 -13.753906 7.085938 -13.984375 6.734375 -14.140625 C 6.378906 -14.304688 5.96875 -14.390625 5.5 -14.390625 C 5.007812 -14.390625 4.625 -14.363281 4.34375 -14.3125 C 4.0625 -14.269531 3.847656 -14.21875 3.703125 -14.15625 Z M 3.703125 -7.25 "/></g></g></g><g fill="#ffffff" fill-opacity="1"><g transform="translate(282.233499, 294.015484)"><g><path d="M 0.75 -0.046875 C 0.820312 -0.148438 0.90625 -0.3125 1 -0.53125 C 1.101562 -0.75 1.1875 -1.03125 1.25 -1.375 C 1.320312 -1.851562 1.40625 -2.394531 1.5 -3 C 1.59375 -3.613281 1.6875 -4.253906 1.78125 -4.921875 C 1.882812 -5.597656 1.988281 -6.285156 2.09375 -6.984375 C 2.195312 -7.679688 2.296875 -8.367188 2.390625 -9.046875 C 2.484375 -9.722656 2.570312 -10.375 2.65625 -11 C 2.738281 -11.632812 2.816406 -12.210938 2.890625 -12.734375 C 2.960938 -13.265625 3.019531 -13.722656 3.0625 -14.109375 C 3.113281 -14.492188 3.148438 -14.785156 3.171875 -14.984375 L 4.484375 -14.984375 L 11.0625 -2.6875 L 17.578125 -14.984375 L 18.578125 -14.984375 L 20.28125 -2.5625 C 20.332031 -2.175781 20.382812 -1.84375 20.4375 -1.5625 C 20.5 -1.289062 20.554688 -1.050781 20.609375 -0.84375 C 20.660156 -0.644531 20.710938 -0.484375 20.765625 -0.359375 C 20.816406 -0.234375 20.867188 -0.128906 20.921875 -0.046875 L 20.921875 0 L 18.28125 0 L 18.28125 -0.046875 C 18.320312 -0.117188 18.359375 -0.238281 18.390625 -0.40625 C 18.421875 -0.582031 18.4375 -0.796875 18.4375 -1.046875 C 18.4375 -1.140625 18.429688 -1.234375 18.421875 -1.328125 C 18.410156 -1.421875 18.398438 -1.519531 18.390625 -1.625 L 17.0625 -11.640625 L 10.90625 -0.046875 L 10.1875 -0.125 L 3.984375 -11.734375 C 3.734375 -10.085938 3.519531 -8.566406 3.34375 -7.171875 C 3.269531 -6.566406 3.191406 -5.96875 3.109375 -5.375 C 3.035156 -4.78125 2.96875 -4.222656 2.90625 -3.703125 C 2.84375 -3.191406 2.796875 -2.738281 2.765625 -2.34375 C 2.734375 -1.945312 2.71875 -1.65625 2.71875 -1.46875 C 2.71875 -1.238281 2.722656 -1.03125 2.734375 -0.84375 C 2.742188 -0.664062 2.757812 -0.515625 2.78125 -0.390625 C 2.800781 -0.242188 2.820312 -0.113281 2.84375 0 L 0.75 0 Z M 0.75 -0.046875 "/></g></g></g><g fill="#ffffff" fill-opacity="1"><g transform="translate(310.123896, 294.015484)"><g><path d="M 11.859375 0 L 11.859375 -0.046875 C 11.867188 -0.078125 11.875 -0.125 11.875 -0.1875 C 11.882812 -0.257812 11.890625 -0.328125 11.890625 -0.390625 C 11.890625 -0.597656 11.859375 -0.832031 11.796875 -1.09375 C 11.742188 -1.363281 11.632812 -1.691406 11.46875 -2.078125 L 10.203125 -4.921875 C 9.816406 -4.929688 9.296875 -4.9375 8.640625 -4.9375 C 7.992188 -4.9375 7.296875 -4.9375 6.546875 -4.9375 C 5.992188 -4.9375 5.460938 -4.9375 4.953125 -4.9375 C 4.441406 -4.9375 3.984375 -4.929688 3.578125 -4.921875 L 2.375 -2.15625 C 2.269531 -1.90625 2.15625 -1.625 2.03125 -1.3125 C 1.914062 -1.007812 1.859375 -0.703125 1.859375 -0.390625 C 1.859375 -0.296875 1.863281 -0.21875 1.875 -0.15625 C 1.894531 -0.101562 1.910156 -0.0664062 1.921875 -0.046875 L 1.921875 0 L -0.203125 0 L -0.203125 -0.046875 C -0.078125 -0.171875 0.078125 -0.398438 0.265625 -0.734375 C 0.453125 -1.078125 0.65625 -1.503906 0.875 -2.015625 L 6.859375 -15.296875 L 7.703125 -15.296875 L 13.375 -2.53125 C 13.5 -2.226562 13.632812 -1.9375 13.78125 -1.65625 C 13.925781 -1.375 14.0625 -1.117188 14.1875 -0.890625 C 14.3125 -0.671875 14.421875 -0.484375 14.515625 -0.328125 C 14.617188 -0.179688 14.6875 -0.0859375 14.71875 -0.046875 L 14.71875 0 Z M 5.09375 -5.84375 C 5.488281 -5.84375 5.898438 -5.84375 6.328125 -5.84375 C 6.753906 -5.84375 7.171875 -5.84375 7.578125 -5.84375 C 7.984375 -5.851562 8.375 -5.859375 8.75 -5.859375 C 9.125 -5.867188 9.46875 -5.875 9.78125 -5.875 L 6.84375 -12.515625 L 3.953125 -5.84375 Z M 5.09375 -5.84375 "/></g></g></g></svg>